<?xml version="1.0" encoding="UTF-8" standalone="no"?>
<!-- Created with Inkscape (http://www.inkscape.org/) -->

<svg
   width="800"
   height="800"
   viewBox="0 0 160 160"
   version="1.1"
   id="svg9587"
   sodipodi:docname="backtalk-logo.svg"
   inkscape:version="1.2.1 (9c6d41e410, 2022-07-14)"
   xmlns:inkscape="http://www.inkscape.org/namespaces/inkscape"
   xmlns:sodipodi="http://sodipodi.sourceforge.net/DTD/sodipodi-0.dtd"
   xmlns="http://www.w3.org/2000/svg"
   xmlns:svg="http://www.w3.org/2000/svg">
  <sodipodi:namedview
     id="namedview9589"
     pagecolor="#ffffff"
     bordercolor="#000000"
     borderopacity="0.25"
     inkscape:showpageshadow="2"
     inkscape:pageopacity="0.0"
     inkscape:pagecheckerboard="0"
     inkscape:deskcolor="#d1d1d1"
     inkscape:document-units="px"
     showgrid="true"
     inkscape:zoom="0.417193"
     inkscape:cx="1907.9898"
     inkscape:cy="1203.28"
     inkscape:window-width="2560"
     inkscape:window-height="1494"
     inkscape:window-x="2869"
     inkscape:window-y="163"
     inkscape:window-maximized="1"
     inkscape:current-layer="layer1" />
  <defs
     id="defs9584">
    <inkscape:path-effect
       effect="spiro"
       id="path-effect2601"
       is_visible="true"
       lpeversion="1" />
    <inkscape:path-effect
       effect="spiro"
       id="path-effect2593"
       is_visible="true"
       lpeversion="1" />
    <inkscape:path-effect
       effect="spiro"
       id="path-effect12077"
       is_visible="true"
       lpeversion="1" />
    <inkscape:path-effect
       effect="spiro"
       id="path-effect12071"
       is_visible="true"
       lpeversion="1" />
  </defs>
  <g
     inkscape:label="Layer 1"
     inkscape:groupmode="layer"
     id="layer1">
    <path
       id="path12069"
       style="fill:#000000;stroke-width:0.137729"
       d="m 37.230966,40.000209 c -3.494382,-0.01655 -6.994937,0.953212 -10.036379,2.98472 -3.23962,2.163877 -5.893578,5.480639 -7.740272,9.313652 -1.846696,3.833014 -2.902711,8.168748 -3.284001,12.562462 -0.762581,8.787424 1.131189,17.618324 3.8008,25.862808 2.36741,7.311213 5.356664,14.337359 8.907467,20.937279 2.854238,4.49001 7.572817,7.2037 12.302015,7.12812 h 0.0055 c 0.213401,-0.004 0.426965,-0.0106 0.640237,-0.0258 4.941428,-0.34684 9.655393,-3.78511 12.153968,-8.86428 1.255888,-2.55302 1.969994,-5.47962 2.057432,-8.4352 -0.912593,0.52184 -2.002311,0.58916 -2.955483,0.18251 -0.953175,-0.40663 -1.758105,-1.2815 -2.183214,-2.37404 -0.327875,-0.842632 -0.43208,-1.796976 -0.349612,-2.72017 0.08873,-0.993327 0.391753,-1.95856 0.871488,-2.778693 0.479738,-0.820156 1.135817,-1.4937 1.888291,-1.938502 0.752476,-0.44479 1.59976,-0.659728 2.439466,-0.619435 0.839705,0.04023 1.669933,0.335474 2.389856,0.850797 l -0.470706,-7.386213 c 1.167688,0.6346 2.49746,0.840276 3.76291,0.582103 1.784165,-0.363998 3.41723,-1.669747 4.373459,-3.496768 0.956229,-1.82702 1.219669,-4.145422 0.705864,-6.20864 -0.513805,-2.06322 -1.79674,-3.83732 -3.435565,-4.751308 -1.638824,-0.913984 -3.606558,-0.95268 -5.269948,-0.1037 l 1.52032,-9.502155 C 59.196125,57.122643 57.893944,53.110982 55.685356,49.987682 54.495522,48.305063 53.060616,46.88487 51.537289,45.63873 48.00016,42.745223 43.90993,40.744253 39.643478,40.168434 38.843518,40.060464 38.037363,40.00403 37.230966,40.000209 Z m 85.538714,0 c -0.8064,0.0038 -1.61255,0.06026 -2.41252,0.168225 -4.26644,0.575819 -8.35668,2.576789 -11.8938,5.470296 -1.52334,1.24614 -2.95824,2.666333 -4.14807,4.348952 -2.20858,3.1233 -3.51077,7.134961 -3.63947,11.212056 l 1.52032,9.502156 c -1.66339,-0.848979 -3.631123,-0.810283 -5.26995,0.103699 -1.638827,0.913988 -2.921762,2.688089 -3.435565,4.751309 -0.513801,2.063217 -0.25036,4.38162 0.705864,6.20864 0.956234,1.82702 2.589292,3.13277 4.373459,3.496768 1.265456,0.258172 2.595222,0.05249 3.762912,-0.582103 l -0.4707,7.386213 c 0.71992,-0.515323 1.55014,-0.810564 2.38985,-0.850798 0.83971,-0.04023 1.68699,0.174646 2.43946,0.619436 0.75247,0.444801 1.40856,1.118346 1.8883,1.938502 0.47973,0.820132 0.78278,1.785366 0.87148,2.778692 0.0825,0.923195 -0.0217,1.877538 -0.34961,2.720171 -0.42511,1.092547 -1.23003,1.967407 -2.18322,2.374037 -0.95317,0.40665 -2.04288,0.33934 -2.95548,-0.18251 0.0874,2.95558 0.80154,5.88218 2.05743,8.4352 2.49858,5.07918 7.21254,8.51744 12.15398,8.86428 0.21327,0.015 0.42683,0.0223 0.64023,0.0258 h 0.005 c 4.72921,0.0756 9.44778,-2.63811 12.30201,-7.12812 3.55081,-6.59992 6.54006,-13.626064 8.90748,-20.937277 2.6696,-8.244483 4.56338,-17.075383 3.80079,-25.862807 -0.38129,-4.393715 -1.4373,-8.729448 -3.284,-12.562462 -1.8467,-3.833014 -4.50065,-7.149775 -7.74027,-9.313653 -3.04144,-2.031508 -6.54199,-3.001273 -10.03638,-2.98472 z m -61.546013,24.39764 c 0.05447,0.01038 0.108873,0.0217 0.163281,0.03272 -0.05442,-0.01097 -0.108833,-0.02254 -0.163281,-0.03272 z m 37.553314,0 c -0.0545,0.01038 -0.108873,0.0217 -0.163283,0.03272 0.0544,-0.01097 0.108843,-0.02254 0.163283,-0.03272 z m -36.128307,0.351198 c 2.500431,0.761503 4.929238,2.274069 7.157848,4.520403 -2.248818,-2.270706 -4.67669,-3.769022 -7.157848,-4.520403 z m 34.703299,0 c -2.481159,0.751381 -4.909029,2.249697 -7.157849,4.520403 2.228609,-2.246334 4.657419,-3.7589 7.157849,-4.520403 z m -27.430216,4.637468 c 0.08649,0.08834 0.172376,0.177621 0.258205,0.268238 -0.08579,-0.09066 -0.17189,-0.179818 -0.258205,-0.268238 z m 20.157133,0 c -0.0865,0.08834 -0.171984,0.177621 -0.257814,0.268238 0.0858,-0.09066 0.171504,-0.179818 0.257814,-0.268238 z m -19.786819,0.388991 c 0.126185,0.135079 0.251786,0.27257 0.376564,0.412496 -0.124998,-0.140121 -0.250401,-0.277218 -0.376564,-0.412496 z m 19.416504,0 c -0.12618,0.135079 -0.251783,0.27257 -0.376564,0.412496 0.125001,-0.140121 0.250404,-0.277218 0.376564,-0.412496 z m -18.807517,0.676125 c 0.05517,0.0637 0.10999,0.127901 0.164845,0.192652 -0.05488,-0.06456 -0.109648,-0.129177 -0.164845,-0.192652 z m 18.19853,0 c -0.0552,0.0637 -0.109984,0.127901 -0.164844,0.192652 0.0549,-0.06456 0.109654,-0.129177 0.164844,-0.192652 z m -17.802433,0.469185 c 0.05604,0.06778 0.112272,0.135356 0.167969,0.204175 -0.05578,-0.06894 -0.111954,-0.13617 -0.167969,-0.204175 z m 17.406337,0 c -0.056,0.06778 -0.11227,0.135356 -0.16797,0.204175 0.0558,-0.06894 0.11195,-0.13617 0.16797,-0.204175 z m -16.303598,1.42968 -0.892583,1.905316 c 7.917194,11.025505 9.36748,30.346808 3.322283,44.261048 l 0.584768,0.75585 L 75.976084,120 c 6.526166,-14.94771 4.959942,-35.818221 -3.57619,-47.649504 z m 15.200859,0 C 79.064627,84.181779 77.498396,105.05229 84.024563,120 l 0.561722,-0.72729 0.584768,-0.75585 c -6.045195,-13.91424 -4.59491,-33.235543 3.322282,-44.261048 z m -19.480178,9.134826 -0.892582,1.907161 c 4.889182,7.086048 5.796218,19.151877 2.104307,28.013317 l 1.147662,1.48452 c 4.17156,-9.89807 3.147964,-23.509464 -2.359387,-31.404998 z m 23.759496,0 c -5.507353,7.895534 -6.530944,21.506928 -2.359387,31.404998 l 1.147662,-1.48452 C 86.97643,102.54436 87.883474,90.478531 92.772654,83.392483 Z m -27.831,8.692836 -0.89688,1.914539 c 2.024252,3.312091 2.415644,8.503843 0.943365,12.539413 l 1.152348,1.49051 c 1.945313,-5.08492 1.439059,-11.807743 -1.198833,-15.944462 z m 31.902504,0 c -2.637899,4.136719 -3.144141,10.859542 -1.198833,15.944462 l 1.152349,-1.49051 c -1.472286,-4.03557 -1.080894,-9.227322 0.943364,-12.539413 z"
       sodipodi:nodetypes="sssssccccscssssscccssssccssssssssccssssccsssccscssccccsssssccccccccccccccccccccccccccccccccccccccccccccccccccccccccccccccccccccaa" />
  </g>
</svg>
